<svg xmlns="http://www.w3.org/2000/svg" width="16.724" height="24.647" viewBox="0 0 16.724 24.647" fill="none">
  <path d="M 14.083 8.733 C 14.083 5.303 11.459 2.641 8.362 2.641 C 7.24 2.641 6.193 2.984 5.305 3.583 C 3.717 4.654 2.641 6.548 2.641 8.733 C 2.641 10.961 3.759 12.888 5.398 13.948 C 6.245 14.495 6.933 14.937 7.43 15.302 C 7.868 15.624 8.408 16.055 8.677 16.626 L 8.678 16.626 C 8.818 16.924 8.883 17.134 8.934 17.458 C 9.018 17.982 8.933 18.454 8.804 18.878 C 8.683 19.277 8.49 19.737 8.285 20.229 C 8.149 20.555 8.03 20.843 7.925 21.099 C 8.032 21.017 8.149 20.932 8.271 20.838 L 8.271 20.836 C 11.784 18.117 14.083 13.719 14.083 8.733 Z M 16.724 8.733 C 16.724 14.539 14.044 19.707 9.887 22.925 C 9.227 23.436 8.637 23.896 8.151 24.189 C 7.742 24.434 6.922 24.875 6.033 24.503 C 5.671 24.352 5.355 24.104 5.121 23.793 L 5.121 23.791 C 4.799 23.362 4.742 22.886 4.755 22.535 C 4.768 22.191 4.851 21.847 4.944 21.541 C 5.129 20.933 5.461 20.141 5.847 19.213 C 6.072 18.672 6.203 18.355 6.277 18.111 C 6.31 18.001 6.323 17.937 6.326 17.903 C 6.328 17.888 6.328 17.88 6.328 17.878 L 6.328 17.876 C 6.316 17.802 6.312 17.796 6.316 17.809 C 6.315 17.805 6.311 17.8 6.308 17.792 C 6.285 17.771 6.177 17.658 5.867 17.431 C 5.449 17.123 4.841 16.73 3.964 16.164 C 1.57 14.615 0 11.854 0 8.733 C 0 5.672 1.511 2.956 3.829 1.393 C 5.131 0.514 6.689 0 8.362 0 C 13.043 0 16.724 3.974 16.724 8.733 Z" fill="currentColor" fill-rule="nonzero"></path>
</svg>